<svg xmlns="http://www.w3.org/2000/svg" viewBox="0 0 508.32 326.34"><defs><style>.cls-1,.cls-7{fill:none;stroke-miterlimit:10;}.cls-1{stroke:#fdfdfd;stroke-width:3px;}.cls-13,.cls-2,.cls-5{fill:#fff;}.cls-2{opacity:0.2;}.cls-3{fill:#d0f2e4;}.cls-4{fill:#def7ec;}.cls-5{opacity:0.5;}.cls-6{fill:#00a774;}.cls-7{stroke:#06694c;stroke-width:0.75px;}.cls-8{fill:#ad7c2c;}.cls-9{fill:#233754;}.cls-10{fill:#365784;}.cls-11{fill:#172438;}.cls-12{fill:#fab140;}.cls-13{opacity:0.05;}</style></defs><title>lamp_2</title><g id="Layer_2" data-name="Layer 2"><g id="OBJECT"><path class="cls-1" d="M508.32,324.84H147a39.13,39.13,0,0,1-39.13-39.13V277.6"/><path class="cls-2" d="M188.15,101.23c0-42-35.26-70.57-78.75-70.57S30.64,59.24,30.64,101.23c0,24.9,12.41,55.37,31.58,76a44,44,0,0,1,11.7,29.89v1.92a14.55,14.55,0,0,0,14.55,14.56h41.85a14.55,14.55,0,0,0,14.55-14.56v-1.92a44,44,0,0,1,11.7-29.89C175.74,156.6,188.15,126.13,188.15,101.23Z"/><path class="cls-3" d="M180.91,106.77c0-36-32-65.12-71.51-65.12S37.88,70.8,37.88,106.77c0,21.09,11,43.16,28.08,57.8a53.2,53.2,0,0,1,18.86,40.29v.89A18.18,18.18,0,0,0,103,223.93h12.21a18.18,18.18,0,0,0,18.18-18.18v-.41a53.2,53.2,0,0,1,19.11-40.5C169.75,150.2,180.91,128,180.91,106.77Z"/><ellipse class="cls-4" cx="109.4" cy="95.39" rx="59.76" ry="43.58"/><ellipse class="cls-5" cx="145" cy="59.31" rx="15.41" ry="23.19" transform="translate(6.66 132.83) rotate(-50.23)"/><ellipse class="cls-5" cx="171.21" cy="94.38" rx="12.33" ry="14.94" transform="translate(-5.5 10.75) rotate(-3.54)"/><path class="cls-6" d="M114.22,61.72S88.39,85.45,86.53,115.05c-1.25,19.91,9.41,40.51,22.83,41.41S133,138.19,134.48,118.3C136.63,88.72,114.22,61.72,114.22,61.72Z"/><path class="cls-6" d="M57.8,126.92s-.89,20.24,10.42,33.1c7.61,8.65,20.36,12.72,26.22,7.62s2.23-17.12-5.29-25.84C78,128.83,57.8,126.92,57.8,126.92Z"/><path class="cls-7" d="M115.26,96.09s-10.91,70.36-3,132.22"/><path class="cls-7" d="M79.77,152.08a155.94,155.94,0,0,0,29.63,25.09"/><path class="cls-6" d="M159.18,117.45s5.49,19.5-2.57,34.61c-5.43,10.16-16.92,17-23.79,13.42s-6.08-16.16-.76-26.37C140,123.92,159.18,117.45,159.18,117.45Z"/><path class="cls-7" d="M143.54,147s-15.78,27.1-34.09,38.9"/><line class="cls-7" x1="93.55" y1="107.86" x2="111.9" y2="125.14"/><line class="cls-7" x1="110.81" y1="138.83" x2="129.56" y2="129.07"/><line class="cls-7" x1="73.28" y1="161.23" x2="88.2" y2="160.57"/><line class="cls-7" x1="93.76" y1="153.03" x2="93.21" y2="165.05"/><line class="cls-7" x1="134.71" y1="146.37" x2="134.71" y2="160.18"/><line class="cls-7" x1="138.67" y1="154.59" x2="151.32" y2="151.96"/><path class="cls-8" d="M104.53,211.63c-9.55,0-12.43,10.65-20.46,13.17H125C117,222.28,114.08,211.63,104.53,211.63Z"/><path class="cls-8" d="M122.35,215c-5.2,0-6.77,7.95-11.15,9.83h22.3C129.12,222.92,127.55,215,122.35,215Z"/><rect class="cls-9" x="80.04" y="223.64" width="58.71" height="45.84" rx="5.07"/><path class="cls-10" d="M138.06,241.32H80.73a5,5,0,0,1-5-5h0a5,5,0,0,1,5-5h57.33a5,5,0,0,1,5,5h0A5,5,0,0,1,138.06,241.32Z"/><path class="cls-10" d="M138.06,261.74H80.73a5,5,0,0,1-5-5h0a5,5,0,0,1,5-5h57.33a5,5,0,0,1,5,5h0A5,5,0,0,1,138.06,261.74Z"/><path class="cls-11" d="M85.11,269.48h48.57a7,7,0,0,1-7,7H92.09a7,7,0,0,1-7-7Z"/><path class="cls-12" d="M99.55,276.45h19.11a3.6,3.6,0,0,1-3.6,3.61h-11.9a3.61,3.61,0,0,1-3.61-3.61Z"/><circle class="cls-13" cx="109.11" cy="109.11" r="109.11" transform="translate(-45.19 109.11) rotate(-45)"/></g></g></svg>