<svg xmlns="http://www.w3.org/2000/svg" viewBox="0 0 236.97 73.32"><title>nasleno-logo</title><g id="Layer_2" data-name="Layer 2"><g id="OBJECT"><path d="M5.81,57.63c2.94-1,5.57-1.92,7.86-2.77A17.38,17.38,0,0,1,4.58,39.24,18.69,18.69,0,0,1,12,24a18,18,0,0,1,12.3-3.35c10.32.79,16.61,8.68,16.61,18.77v3.14H44.5a2,2,0,0,1,2,1.95V55.06a1.92,1.92,0,0,1-2,1.95H36.64C30.32,64.8,19.69,68.36,10.49,71.37c-2.29.75-4.71,1.6-5.7,1.95L0,59.64C3.08,58.55,4.48,58.07,5.81,57.63Zm13.3-18.77a3.69,3.69,0,1,0,3.69-3.69A3.67,3.67,0,0,0,19.11,38.86Z"/><path d="M42,42.49h5a30.31,30.31,0,0,0,9-1.2c-.13-5.91-1.71-12.72-3.42-18.32l13.85-4.21a103.77,103.77,0,0,1,3.55,16.07c.75,5.88.79,11.72-1,15.41a20.41,20.41,0,0,1-7.69,5C56.91,56.81,52.16,57.05,47,57H42a1.93,1.93,0,0,1-1.95-1.95V44.4A1.92,1.92,0,0,1,42,42.49Zm4.27-36a6.46,6.46,0,1,1,6.46,6.46A6.48,6.48,0,0,1,46.31,6.46Z"/><path d="M87.74,50.38c.17-4.65,1.5-10,4.44-16.2l13.13,6.25c-2,4.31-3,7.76-3.08,10.46a7.76,7.76,0,0,0,.89,4.34c1.33,2.19,4.48,3,6.87,3.08a11.62,11.62,0,0,0,6.53-1.81c1.33-.92,1.91-2.36,2-4.38,0-2.94.07-5.87.07-8.81,0-.45-.07-.89-.07-1.34V10.22l14.66-4.61V40.09a2.28,2.28,0,0,0,2.26,2.26h3.32a1.92,1.92,0,0,1,1.91,1.95V55.06A1.94,1.94,0,0,1,138.74,57h-5.2a6.27,6.27,0,0,1-.75,0c-2.46,10-12.58,15.86-22.46,15.86-7.72,0-15.34-3.28-19.51-10A21.56,21.56,0,0,1,87.74,50.38Z"/><path d="M136.58,42.52c2.46,0,6.33-.58,8-2.63s2.32-5.16,2.56-9.44l14.46.76A40.5,40.5,0,0,1,160,40.74a4.44,4.44,0,0,0,2.8,1.44,3.75,3.75,0,0,0,1.95-.31,3.52,3.52,0,0,0,1.47-1.33c-.27-1-.58-2-.82-3a25.12,25.12,0,0,0-1.06-3.59l12.89-6.63a31.2,31.2,0,0,1,2.22,6.59c.75,2.94,1.67,6.5,2.05,6.63,1.16.45,2.22.89,3.11,1.2a121.11,121.11,0,0,0-1.71-12.85l-.1-.55,14.39-2.15.07.54c.51,4.14,1.33,10.6,4.51,13.37,1.81,1.57,5.09,2.39,7.41,2.46l1.44,0a2,2,0,0,1,1.95,1.92V55.06A2,2,0,0,1,210.65,57h-1.44A29.11,29.11,0,0,1,196,53.56a12.46,12.46,0,0,1-8.58,3.14c-3.38,0-7.14-1.19-11.17-2.73a12.64,12.64,0,0,1-1.95-1A18,18,0,0,1,171,55a18.34,18.34,0,0,1-9.64,1.6,19.43,19.43,0,0,1-9.54-3.79,21.78,21.78,0,0,1-13,4.24c-.13,0-.78,0-1.6,0h-.58a2,2,0,0,1-2-1.95V44.47A2,2,0,0,1,136.58,42.52Z"/><path d="M208.6,42.49h5a30.39,30.39,0,0,0,9-1.2A72.65,72.65,0,0,0,219.09,23l13.84-4.21a103.65,103.65,0,0,1,3.56,16.07c.75,5.88.79,11.72-1,15.41a20.26,20.26,0,0,1-7.69,5c-4.3,1.58-9.05,1.82-14.22,1.78h-5a1.92,1.92,0,0,1-1.95-1.95V44.4A1.91,1.91,0,0,1,208.6,42.49Zm4.27-36a6.46,6.46,0,1,1,6.46,6.46A6.48,6.48,0,0,1,212.87,6.46Z"/></g></g></svg>